<svg xmlns="http://www.w3.org/2000/svg" width="20" height="20" viewBox="12 12 20 20"><path d="M22 13.8c2.662 0 2.98.012 4.03.06.973.044 1.502.207 1.854.345.468.18.8.398 1.147.747.35.35.566.683.746 1.15.14.352.3.882.345 1.856.05 1.055.06 1.372.06 4.04 0 2.67-.012 2.988-.06 4.044-.044.974-.205 1.502-.344 1.856-.18.467-.396.8-.745 1.148-.348.352-.68.568-1.146.747-.352.14-.88.3-1.854.346-1.05.047-1.368.057-4.03.057-2.664 0-2.98-.01-4.03-.058-.974-.048-1.502-.208-1.855-.347-.466-.18-.798-.396-1.146-.747-.35-.35-.567-.682-.748-1.148-.137-.354-.298-.883-.344-1.856-.048-1.056-.058-1.37-.058-4.042 0-2.668.01-2.986.058-4.04.046-.975.207-1.505.344-1.858.18-.467.397-.8.747-1.15.348-.35.68-.566 1.145-.746.353-.138.88-.3 1.854-.346 1.05-.048 1.367-.06 4.03-.06m0-1.8c-2.71 0-3.05.012-4.113.06-1.062.048-1.788.218-2.422.465-.656.256-1.212.598-1.768 1.153-.554.556-.895 1.114-1.15 1.77-.247.638-.415 1.364-.464 2.428-.05 1.067-.06 1.408-.06 4.123 0 2.716.012 3.055.06 4.123.05 1.064.217 1.79.464 2.427.256.658.597 1.216 1.15 1.772.556.556 1.11.896 1.768 1.152.635.248 1.36.415 2.422.465 1.063.047 1.403.06 4.113.06 2.71 0 3.048-.013 4.113-.06 1.06-.05 1.788-.218 2.422-.466.656-.256 1.212-.597 1.768-1.152.554-.557.894-1.114 1.148-1.772.25-.636.416-1.362.467-2.427.048-1.067.06-1.407.06-4.124 0-2.716-.013-3.057-.06-4.124-.05-1.064-.218-1.79-.466-2.427-.254-.658-.594-1.216-1.147-1.772-.556-.556-1.11-.897-1.768-1.153-.634-.247-1.36-.417-2.422-.464C25.048 12.013 24.71 12 22 12z"/><path d="M22 16.864c-2.83 0-5.123 2.3-5.123 5.135S19.17 27.132 22 27.132s5.122-2.298 5.122-5.134c0-2.836-2.293-5.136-5.122-5.136zm0 8.47c-1.837 0-3.325-1.494-3.325-3.334s1.488-3.333 3.325-3.333c1.836 0 3.326 1.493 3.326 3.333s-1.49 3.335-3.326 3.335z"/><circle cx="27.325" cy="16.662" r="1.198"/></svg>