<svg xmlns="http://www.w3.org/2000/svg" width="20" height="20" viewBox="0 0 20 20"><path fill-rule="evenodd" clip-rule="evenodd" d="M20 5.28c-.012-.075-.027-.15-.05-.222-.29-.856-1.017-1.4-1.874-1.4.133 0-3.314-.51-7.9-.53-4.587.02-8.036.53-8.036.53-.724 0-1.45.544-1.71 1.3-.052.173-.068.248-.08.323C.226 6.158.02 7.906 0 10c.02 2.094.225 3.84.35 4.717.012.076.028.15.048.223.292.857 1.018 1.4 1.876 1.4-.135 0 3.314.51 7.9.53 4.587-.02 8.034-.53 8.034-.53.725 0 1.45-.543 1.71-1.297.054-.176.07-.25.08-.326m-6.81-4.29l-4.108 2.92c-.086.063-.188.093-.29.093-.076 0-.155-.018-.225-.05-.166-.085-.27-.25-.27-.435v-5.84c0-.184.103-.35.27-.434.165-.08.365-.066.515.04l4.11 2.922c.126.09.202.237.202.392 0 .155-.076.3-.203.392"/></svg>