<svg xmlns="http://www.w3.org/2000/svg" width="20" height="20" viewBox="0 0 20 20"><path fill-rule="evenodd" clip-rule="evenodd" d="M20 3.796c-.736.327-1.526.546-2.357.646.848-.506 1.5-1.312 1.804-2.27-.792.472-1.67.812-2.604.998-.75-.8-1.816-1.298-2.996-1.298-2.266 0-4.102 1.837-4.102 4.1 0 .324.035.637.104.94-3.41-.174-6.433-1.806-8.458-4.29C1.04 3.23.836 3.935.836 4.687c0 1.422.725 2.68 1.826 3.418C1.99 8.08 1.358 7.893.805 7.59c-.003.014-.003.033-.003.05 0 1.988 1.417 3.645 3.293 4.023-.345.095-.708.144-1.08.144-.266 0-.522-.025-.773-.074.52 1.63 2.037 2.818 3.832 2.853-1.403 1.1-3.172 1.756-5.095 1.756-.332 0-.66-.02-.98-.057 1.815 1.164 3.972 1.843 6.29 1.843 7.548 0 11.674-6.254 11.674-11.674 0-.18-.003-.356-.012-.53.803-.58 1.497-1.306 2.048-2.128"/></svg>