<?xml version="1.0" encoding="utf-8"?>
<!-- Generator: Adobe Illustrator 16.0.4, SVG Export Plug-In . SVG Version: 6.00 Build 0)  -->
<!DOCTYPE svg PUBLIC "-//W3C//DTD SVG 1.1//EN" "http://www.w3.org/Graphics/SVG/1.1/DTD/svg11.dtd">
<svg version="1.1" id="Layer_1" xmlns="http://www.w3.org/2000/svg" xmlns:xlink="http://www.w3.org/1999/xlink" x="0px" y="0px"
	 width="55.995px" height="75px" viewBox="0 0 55.995 75" enable-background="new 0 0 55.995 75" xml:space="preserve">
<g>
	<path fill="#06090D" d="M14.111,46.412l1.428-5.058c4.54-16.231,9.182-27.182,13.927-32.851C34.209,2.834,39.491,0,45.31,0
		c3.153,0,5.723,0.605,7.708,1.814c1.984,1.21,2.977,2.604,2.977,4.181c0,1.604-0.72,2.406-2.162,2.406
		c-1.006,0-2.025-0.816-3.058-2.447c-1.631-2.61-3.97-3.915-7.015-3.915c-2.257,0-4.479,0.843-6.668,2.528
		c-2.188,1.687-3.874,3.889-5.057,6.607c-1.182,2.719-2.563,6.743-4.139,12.071c-2.665,9-5.356,16.721-8.075,23.166h15.212
		l-0.693,1.875H19.004c-1.305,3.073-3.534,7.368-6.688,12.888c0.679-0.354,1.407-0.612,2.182-0.775
		c0.775-0.163,1.597-0.245,2.468-0.245c3.67,0,7.449,1.862,11.337,5.587c2.229,2.12,3.942,3.534,5.139,4.241
		c1.196,0.707,2.542,1.061,4.037,1.061c2.093,0,4.01-0.707,5.751-2.121c1.739-1.413,2.609-3.167,2.609-5.261
		c0-1.305-0.503-2.787-1.509-4.445c-0.489-0.816-0.733-1.55-0.733-2.203c0-0.626,0.251-1.155,0.754-1.59
		c0.502-0.435,1.067-0.653,1.692-0.653c1.033,0,1.869,0.503,2.508,1.509c0.638,1.005,0.958,2.284,0.958,3.833
		c0,3.753-1.625,7.152-4.874,10.196c-3.249,3.044-6.723,4.568-10.42,4.568c-3.997,0-8.197-2.284-12.602-6.853
		c-3.318-3.479-6.023-5.22-8.116-5.22c-0.407,0-0.83,0.062-1.264,0.184c-0.436,0.122-0.884,0.32-1.346,0.592
		c-0.137,0.245-0.463,0.923-0.979,2.039C6.919,71.873,4.364,75,2.243,75C0.748,75,0,74.279,0,72.839
		c0-1.524,0.917-3.278,2.753-5.262c1.835-1.985,4.003-3.766,6.505-5.342c0.815-2.148,2.243-6.797,4.282-13.948H0.408l0.652-1.875
		H14.111z"/>
</g>
</svg>
