<?xml version="1.0" encoding="utf-8"?>
<!-- Generator: Adobe Illustrator 16.0.4, SVG Export Plug-In . SVG Version: 6.00 Build 0)  -->
<!DOCTYPE svg PUBLIC "-//W3C//DTD SVG 1.1//EN" "http://www.w3.org/Graphics/SVG/1.1/DTD/svg11.dtd">
<svg version="1.1" id="Layer_1" xmlns="http://www.w3.org/2000/svg" xmlns:xlink="http://www.w3.org/1999/xlink" x="0px" y="0px"
	 width="22px" height="22.001px" viewBox="0 0 22 22.001" enable-background="new 0 0 22 22.001" xml:space="preserve">
<rect fill="#A02026" width="22" height="22.001"/>
<g>
	<path fill="#FFFFFF" d="M0.048,5.015c0.478-1.912,2.772-4.59,2.772-4.59s0.574-0.86,1.626-0.096
		C5.499,0.998,7.22,2.624,7.411,3.294c0.191,0.669,0.67,1.052-0.669,2.964c-1.243,1.913-1.53,2.009-0.956,3.061
		c0.574,0.956,5.929,6.407,6.885,6.885c1.052,0.574,1.147,0.287,3.061-0.956c1.912-1.243,2.391-0.765,2.965-0.573
		c0.669,0.19,2.295,1.912,2.964,2.965c0.766,0.956,0,1.529,0,1.529s-2.678,2.391-4.686,2.773C12.766,22.897-0.909,9.318,0.048,5.015
		z M12.193,2.72c-0.766,0-0.766-1.147,0-1.147c4.59,0,8.224,3.634,8.224,8.224c0,0.67-1.147,0.67-1.147,0
		C19.269,5.876,16.114,2.72,12.193,2.72z M12.575,5.589c-0.765,0-0.765-1.147,0-1.147c2.773,0,4.973,2.295,4.973,4.973
		c0,0.765-1.147,0.765-1.147,0C16.4,7.31,14.679,5.589,12.575,5.589z"/>
</g>
</svg>
