<?xml version="1.0" encoding="utf-8"?><!DOCTYPE svg PUBLIC "-//W3C//DTD SVG 1.1//EN" "http://www.w3.org/Graphics/SVG/1.1/DTD/svg11.dtd"><svg xmlns="http://www.w3.org/2000/svg" xmlns:xlink="http://www.w3.org/1999/xlink"><symbol viewBox="0 0 77.781 77.782" id="icon-arrow-box" xmlns="http://www.w3.org/2000/svg"><path d="M38.891 2.829l36.062 36.063-36.062 36.062L2.829 38.891 38.891 2.829m0-2.829L0 38.891l38.891 38.892 38.891-38.891L38.891 0z"/><path fill="currentColor" d="M0 38.89L38.89 0l38.89 38.89-38.89 38.891z"/><path d="M37.277 52.326L24.572 38.82l12.705-13.505 1.457 1.37L27.318 38.82l11.416 12.135z"/></symbol><symbol viewBox="0 0 22 22" id="icon-basket" xmlns="http://www.w3.org/2000/svg"><path d="M17 6V0H5v6H0v16h22V6h-5zM6 1h10v5H6V1zm15 20H1V7h4v3h1V7h10v3h1V7h4v14z"/></symbol><symbol viewBox="0 0 79 78.99" id="icon-box-arrow-left" xmlns="http://www.w3.org/2000/svg"><path d="M39.501 78.99L0 39.495 39.501 0 79 39.495 39.501 78.99zM1.414 39.495l38.087 38.081 38.085-38.081L39.501 1.414 1.414 39.495z"/><path d="M40.647 52.917L27.168 39.495l13.479-13.422.706.709-12.767 12.713 12.767 12.713z"/></symbol><symbol viewBox="0 0 45.01 44.364" id="icon-box-arrow-left-small" xmlns="http://www.w3.org/2000/svg"><path d="M22.506 44.364L0 22.182 22.506 0 45.01 22.182 22.506 44.364zM1.425 22.182L22.506 42.96l21.08-20.778-21.08-20.778L1.425 22.182z"/><path d="M22.998 29.774l-7.736-7.592 7.736-7.594.701.714-7.01 6.88 7.01 6.88z"/></symbol><symbol viewBox="0 0 79 78.99" id="icon-box-arrow-right" xmlns="http://www.w3.org/2000/svg"><path d="M0 39.495L39.499 0 79 39.495 39.499 78.99 0 39.495zM39.499 1.414L1.414 39.495l38.085 38.081 38.087-38.081L39.499 1.414z"/><path d="M38.353 52.917l13.479-13.422-13.479-13.422-.706.709 12.767 12.713-12.767 12.713z"/></symbol><symbol viewBox="0 0 45.01 44.364" id="icon-box-arrow-right-small" xmlns="http://www.w3.org/2000/svg"><path d="M0 22.182L22.504 0l22.507 22.182-22.507 22.182L0 22.182zM22.504 1.404L1.424 22.182l21.08 20.778 21.081-20.778L22.504 1.404z"/><path d="M22.013 29.774l7.737-7.592-7.737-7.594-.701.714 7.01 6.88-7.01 6.88z"/></symbol><symbol viewBox="0 0 29.995 29.569" id="icon-close" xmlns="http://www.w3.org/2000/svg"><path d="M29.995.712L29.293 0 14.998 14.083.702 0 0 .712l14.285 14.073L0 28.857l.702.712 14.296-14.083 14.295 14.083.702-.712L15.71 14.785z"/></symbol><symbol viewBox="4.444 0 11.111 20" id="icon-facebook" xmlns="http://www.w3.org/2000/svg"><path d="M15.556 3.48H12.38c-.373 0-.793.49-.793 1.15v2.294h3.97v3.266h-3.97V20H7.84v-9.812H4.443V6.923H7.84V5c0-2.758 1.915-5 4.542-5h3.174v3.48z"/></symbol><symbol viewBox="0 0 20 20" id="icon-googleplus" xmlns="http://www.w3.org/2000/svg"><path d="M6.368 9.089v2.181h3.611c-.144.935-1.095 2.749-3.611 2.749-2.174 0-3.947-1.799-3.947-4.02 0-2.221 1.773-4.019 3.947-4.019 1.238 0 2.062.527 2.533.983l1.726-1.662C9.517 4.263 8.078 3.64 6.36 3.64 2.845 3.64 0 6.484 0 10s2.845 6.36 6.36 6.36c3.675 0 6.104-2.581 6.104-6.216 0-.416-.049-.735-.104-1.055H6.368zM20 9.089h-1.814V7.275h-1.823v1.814h-1.812v1.822h1.812v1.814h1.823v-1.814H20z"/></symbol><symbol viewBox="12 12 20 20" id="icon-instagram" xmlns="http://www.w3.org/2000/svg"><path d="M22 13.8c2.662 0 2.98.012 4.03.06.973.044 1.502.207 1.854.345.468.18.8.398 1.147.747.35.35.566.683.746 1.15.14.352.3.882.345 1.856.05 1.055.06 1.372.06 4.04 0 2.67-.012 2.988-.06 4.044-.044.974-.205 1.502-.344 1.856-.18.467-.396.8-.745 1.148-.348.352-.68.568-1.146.747-.352.14-.88.3-1.854.346-1.05.047-1.368.057-4.03.057-2.664 0-2.98-.01-4.03-.058-.974-.048-1.502-.208-1.855-.347a3.042 3.042 0 0 1-1.146-.747 3.092 3.092 0 0 1-.748-1.148c-.137-.354-.298-.883-.344-1.856-.048-1.056-.058-1.37-.058-4.042 0-2.668.01-2.986.058-4.04.046-.975.207-1.505.344-1.858.18-.467.397-.8.747-1.15.348-.35.68-.566 1.145-.746.353-.138.88-.3 1.854-.346 1.05-.048 1.367-.06 4.03-.06m0-1.8c-2.71 0-3.05.012-4.113.06-1.062.048-1.788.218-2.422.465a4.921 4.921 0 0 0-1.768 1.153 4.92 4.92 0 0 0-1.15 1.77c-.247.638-.415 1.364-.464 2.428-.05 1.067-.06 1.408-.06 4.123 0 2.716.012 3.055.06 4.123.05 1.064.217 1.79.464 2.427a4.936 4.936 0 0 0 1.15 1.772c.556.556 1.11.896 1.768 1.152.635.248 1.36.415 2.422.465 1.063.047 1.403.06 4.113.06 2.71 0 3.048-.013 4.113-.06 1.06-.05 1.788-.218 2.422-.466a4.918 4.918 0 0 0 1.768-1.152 4.899 4.899 0 0 0 1.148-1.772c.25-.636.416-1.362.467-2.427.048-1.067.06-1.407.06-4.124 0-2.716-.013-3.057-.06-4.124-.05-1.064-.218-1.79-.466-2.427a4.9 4.9 0 0 0-1.147-1.772 4.891 4.891 0 0 0-1.768-1.153c-.634-.247-1.36-.417-2.422-.464C25.048 12.013 24.71 12 22 12z"/><path d="M22 16.864c-2.83 0-5.123 2.3-5.123 5.135S19.17 27.132 22 27.132s5.122-2.298 5.122-5.134c0-2.836-2.293-5.136-5.122-5.136zm0 8.47c-1.837 0-3.325-1.494-3.325-3.334s1.488-3.333 3.325-3.333c1.836 0 3.326 1.493 3.326 3.333s-1.49 3.335-3.326 3.335z"/><circle cx="27.325" cy="16.662" r="1.198"/></symbol><symbol viewBox="0 0 58.729 59.168" id="icon-quotes" xmlns="http://www.w3.org/2000/svg"><path fill-rule="evenodd" clip-rule="evenodd" d="M25.729 59.168C8.577 57.432 0 45.14 0 22.292V0h25.729v25.729h-10v2.084c0 13.889 3.333 21.771 10 23.646v7.709zM58.729 59.168C41.576 57.432 33 45.14 33 22.292V0h25.729v25.729h-10v2.084c0 13.889 3.333 21.771 10 23.646v7.709z"/></symbol><symbol viewBox="0 0 22.195 14" id="icon-scroll" xmlns="http://www.w3.org/2000/svg"><path d="M22.195 2.896L19.298 0l-8.201 8.2L2.896 0 0 2.896 11.09 14l.007-.007.007.007z"/></symbol><symbol viewBox="0 0 22 22" id="icon-search" xmlns="http://www.w3.org/2000/svg"><path d="M21.989 21.279l-6.272-6.271a8.962 8.962 0 0 0 2.299-5.995 9 9 0 0 0-9-9c-4.971 0-9 4.029-9 9s4.029 9 9 9a8.964 8.964 0 0 0 5.994-2.299l6.272 6.271.707-.706zM1.016 9.013c0-4.411 3.589-8 8-8s8 3.589 8 8c0 2.061-.79 3.936-2.075 5.356l-.568.568a7.958 7.958 0 0 1-5.356 2.076c-4.413.001-8.001-3.589-8.001-8z"/></symbol><symbol viewBox="0 0 15 28.001" id="icon-slider-next" xmlns="http://www.w3.org/2000/svg"><path d="M1.437 28.001l13.563-14L1.437 0 0 1.392l12.215 12.609L0 26.608z"/></symbol><symbol viewBox="0 0 15 28.001" id="icon-slider-prev" xmlns="http://www.w3.org/2000/svg"><path d="M13.564 28.001L0 14.001 13.564 0 15 1.392 2.785 14.001 15 26.608z"/></symbol><symbol viewBox="0 0 20 20" id="icon-twitter" xmlns="http://www.w3.org/2000/svg"><path fill-rule="evenodd" clip-rule="evenodd" d="M20 3.796a8.203 8.203 0 0 1-2.357.646 4.096 4.096 0 0 0 1.804-2.27 8.214 8.214 0 0 1-2.604.998 4.102 4.102 0 0 0-7.098 2.802c0 .324.035.637.104.94a11.66 11.66 0 0 1-8.458-4.29 4.112 4.112 0 0 0 1.271 5.483A4.186 4.186 0 0 1 .805 7.59c-.003.014-.003.033-.003.05a4.109 4.109 0 0 0 3.293 4.023 4.067 4.067 0 0 1-1.853.07 4.11 4.11 0 0 0 3.832 2.853 8.229 8.229 0 0 1-5.095 1.756c-.332 0-.66-.02-.98-.057a11.612 11.612 0 0 0 6.29 1.843c7.548 0 11.674-6.254 11.674-11.674 0-.18-.003-.356-.012-.53a8.388 8.388 0 0 0 2.048-2.128"/></symbol><symbol viewBox="0 0 20 20" id="icon-youtube" xmlns="http://www.w3.org/2000/svg"><path fill-rule="evenodd" clip-rule="evenodd" d="M20 5.28a1.518 1.518 0 0 0-.05-.222c-.29-.856-1.017-1.4-1.874-1.4.133 0-3.314-.51-7.9-.53-4.587.02-8.036.53-8.036.53-.724 0-1.45.544-1.71 1.3a2.286 2.286 0 0 0-.08.323C.226 6.158.02 7.906 0 10c.02 2.094.225 3.84.35 4.717.012.076.028.15.048.223.292.857 1.018 1.4 1.876 1.4-.135 0 3.314.51 7.9.53 4.587-.02 8.034-.53 8.034-.53.725 0 1.45-.543 1.71-1.297.054-.176.07-.25.08-.326m-6.81-4.29l-4.108 2.92a.489.489 0 0 1-.29.093.487.487 0 0 1-.495-.485v-5.84c0-.184.103-.35.27-.434a.512.512 0 0 1 .515.04l4.11 2.922c.126.09.202.237.202.392 0 .155-.076.3-.203.392"/></symbol></svg>